<?xml version="1.0" standalone="no"?>
<!DOCTYPE svg PUBLIC "-//W3C//DTD SVG 20010904//EN"
 "http://www.w3.org/TR/2001/REC-SVG-20010904/DTD/svg10.dtd">
<svg version="1.0" xmlns="http://www.w3.org/2000/svg"
 width="180.000000pt" height="180.000000pt" viewBox="0 0 180.000000 180.000000"
 preserveAspectRatio="xMidYMid meet">
<metadata>
Created by potrace 1.14, written by Peter Selinger 2001-2017
</metadata>
<g transform="translate(0.000000,180.000000) scale(0.100000,-0.100000)"
fill="#000000" stroke="none">
<path d="M1100 1214 c0 -9 14 -21 31 -27 22 -9 29 -17 25 -30 -4 -18 22 -79
37 -85 16 -8 6 -31 -15 -34 -25 -4 -37 -28 -14 -28 22 0 20 -12 -4 -33 -11 -9
-27 -14 -36 -10 -11 4 -15 2 -10 -5 3 -6 -3 -17 -14 -25 -11 -7 -17 -17 -12
-22 4 -4 -12 -5 -36 -2 -23 3 -40 1 -37 -3 3 -5 3 -15 0 -23 -5 -10 -21 -13
-63 -11 -31 1 -51 0 -44 -3 27 -10 9 -18 -48 -20 -33 -1 -65 -5 -72 -9 -18
-11 -90 -5 -114 11 -21 13 -70 10 -80 -6 -3 -5 -10 -9 -15 -9 -6 0 -7 5 -4 10
4 6 -8 10 -28 10 -22 0 -37 6 -41 16 -3 8 -10 12 -16 9 -6 -4 -8 -11 -5 -16
10 -15 -4 -10 -23 9 -10 10 -16 24 -14 31 3 9 -5 11 -33 5 -35 -6 -37 -5 -30
15 6 20 3 22 -22 19 -25 -3 -28 0 -26 23 1 20 -3 25 -19 25 -29 -1 -33 43 -6
65 17 13 18 17 5 27 -12 10 -19 7 -41 -18 -35 -43 -35 -54 11 -187 17 -49 80
-111 150 -147 57 -29 214 -72 295 -81 89 -10 286 -7 368 5 184 28 332 91 405
171 36 40 37 44 32 94 -6 61 -28 107 -65 143 -34 31 -140 102 -153 102 -15 0
-109 29 -147 46 -43 19 -72 18 -72 -2z m267 -244 c18 -16 38 -30 42 -30 5 0
11 -8 13 -18 5 -16 -4 -20 -53 -28 l-59 -10 0 58 c0 67 8 71 57 28z m115 6 c9
-14 0 -23 -34 -31 -29 -8 -32 -4 -22 33 5 18 11 21 28 16 11 -4 24 -12 28 -18z
m-242 -126 c0 -9 -9 -25 -20 -35 -19 -17 -20 -17 -34 17 -8 19 -18 47 -22 62
l-7 28 42 -27 c22 -15 41 -35 41 -45z m-359 -36 c10 -13 10 -17 -2 -25 -25
-15 -39 -10 -39 16 0 28 21 33 41 9z m460 -14 c24 -20 24 -20 5 -35 -32 -25
-46 -18 -46 20 0 40 8 43 41 15z m-697 -26 c8 -21 -1 -34 -24 -34 -22 0 -34
15 -26 35 7 20 42 19 50 -1z m304 4 c17 -17 15 -35 -5 -42 -20 -8 -44 19 -36
40 6 17 25 18 41 2z m-187 -14 c10 -13 10 -17 -2 -25 -30 -19 -57 -3 -45 26 7
20 30 19 47 -1z m-66 -45 c5 -14 2 -25 -6 -30 -21 -13 -34 -5 -37 24 -3 21 1
27 17 27 11 0 22 -9 26 -21z m166 0 c13 -25 0 -43 -27 -37 -12 2 -20 13 -22
31 -3 22 1 27 17 27 11 0 25 -9 32 -21z"/>
<path d="M1461 650 c-116 -105 -365 -190 -561 -190 -191 0 -440 83 -557 185
-28 25 -54 45 -56 45 -11 0 1 -108 14 -131 7 -13 12 -27 11 -31 -2 -8 89 -96
119 -114 42 -24 127 -65 146 -69 10 -3 51 -14 92 -24 40 -11 79 -17 87 -14 8
3 14 1 14 -4 0 -14 240 -7 325 11 44 9 90 18 101 20 12 3 42 14 67 25 25 12
51 21 56 21 6 0 11 4 11 10 0 5 10 12 23 15 20 5 64 44 118 103 22 24 46 99
48 150 1 23 1 42 -1 42 -2 -1 -27 -23 -57 -50z"/>
<path d="M453 654 c3 -3 43 -19 89 -35 58 -20 71 -27 43 -23 -22 3 -47 6 -55
7 -8 2 -21 6 -27 10 -7 5 -13 4 -13 -2 0 -5 10 -13 23 -17 12 -4 24 -10 27
-14 3 -4 39 -18 80 -33 63 -21 87 -24 155 -21 44 3 96 9 115 14 19 6 48 10 64
10 58 0 17 11 -55 15 -75 4 -326 54 -401 81 -44 15 -55 17 -45 8z m214 -70
c-3 -3 -12 -4 -19 -1 -8 3 -5 6 6 6 11 1 17 -2 13 -5z"/>
</g>
</svg>
