<?xml version="1.0" standalone="no"?>
<!DOCTYPE svg PUBLIC "-//W3C//DTD SVG 20010904//EN"
 "http://www.w3.org/TR/2001/REC-SVG-20010904/DTD/svg10.dtd">
<svg version="1.0" xmlns="http://www.w3.org/2000/svg"
 width="512.000000pt" height="512.000000pt" viewBox="0 0 512.000000 512.000000"
 preserveAspectRatio="xMidYMid meet">
<metadata>
Created by potrace 1.14, written by Peter Selinger 2001-2017
</metadata>
<g transform="translate(0.000000,512.000000) scale(0.100000,-0.100000)"
fill="#000000" stroke="none">
<path d="M3066 3403 c-9 -9 6 -67 22 -85 8 -10 21 -18 29 -18 7 0 25 -7 38
-16 14 -9 32 -13 41 -10 29 11 43 -21 28 -63 -10 -30 -10 -40 2 -58 8 -12 14
-30 14 -38 0 -19 23 -45 39 -45 6 0 11 -18 11 -40 0 -34 4 -42 26 -50 19 -7
25 -16 22 -33 -3 -19 -10 -22 -60 -25 l-58 -3 0 -34 c0 -27 4 -35 18 -35 25 0
56 -35 49 -55 -4 -8 -18 -15 -32 -15 -18 0 -28 -8 -37 -30 -13 -29 -14 -30
-42 -15 -36 19 -46 19 -62 -2 -9 -13 -9 -22 -2 -31 16 -19 -28 -52 -69 -52
-38 0 -48 -28 -13 -37 12 -3 19 -10 17 -16 -4 -13 -98 -10 -134 4 -39 15 -71
11 -83 -10 -15 -28 -13 -31 20 -31 17 0 30 -4 30 -10 0 -5 -5 -10 -10 -10 -6
0 -15 -11 -20 -25 -11 -28 -53 -35 -67 -12 -14 24 -40 26 -61 6 -25 -23 -45
-24 -75 -5 -21 14 -77 11 -77 -3 0 -4 9 -17 20 -29 11 -12 20 -24 20 -27 0
-10 -35 -4 -53 9 -20 15 -93 11 -115 -7 -6 -5 -25 -7 -42 -4 -19 4 -34 1 -44
-8 -21 -21 -47 -19 -53 5 -4 16 -14 20 -52 20 -26 0 -52 5 -59 12 -9 9 -12 7
-12 -9 0 -12 6 -25 12 -29 18 -11 -25 -22 -92 -23 -34 0 -62 5 -74 14 -11 8
-30 15 -42 15 -14 0 -24 8 -27 21 -5 18 -11 20 -34 15 -68 -17 -91 -18 -116
-1 -23 15 -28 15 -56 1 -17 -9 -55 -16 -90 -16 -54 0 -64 3 -88 29 -30 31 -73
49 -73 32 0 -17 -58 -13 -79 6 -15 12 -18 24 -14 46 5 22 1 33 -12 44 -27 19
-63 16 -77 -7 -15 -23 -53 -26 -74 -6 -18 19 -18 26 1 26 9 0 15 9 15 24 0 31
-26 40 -85 31 -38 -5 -45 -3 -55 15 -10 19 -8 50 6 101 5 18 -25 36 -35 21 -9
-13 -65 -22 -80 -13 -11 7 -9 13 8 30 22 22 29 61 11 61 -5 0 -10 11 -10 24 0
19 7 25 35 30 32 6 35 10 35 41 0 22 -9 43 -25 61 -27 29 -33 60 -12 67 6 2 9
8 5 12 -17 18 -153 -127 -164 -175 -3 -14 -10 -35 -15 -48 -5 -13 -9 -50 -9
-83 0 -48 5 -68 25 -97 15 -22 25 -51 25 -72 0 -41 48 -200 61 -200 5 0 9 -9
9 -20 0 -11 4 -20 9 -20 4 0 20 -17 33 -37 36 -54 104 -119 168 -162 30 -20
57 -38 60 -41 13 -13 157 -80 173 -80 9 0 17 -4 17 -10 0 -5 5 -10 11 -10 6 0
25 -6 42 -14 18 -7 52 -19 77 -26 25 -7 57 -18 72 -26 14 -8 40 -14 57 -14 17
0 31 -4 31 -9 0 -5 19 -11 43 -14 23 -3 74 -13 112 -21 332 -77 974 -77 1340
-1 44 10 97 19 118 22 20 3 40 9 43 14 3 5 18 9 34 9 16 0 44 6 62 14 18 8 53
20 78 26 25 7 54 16 65 21 11 4 30 11 43 14 12 4 22 11 22 16 0 5 11 9 25 9
14 0 25 5 25 10 0 6 5 10 11 10 11 0 116 50 154 73 31 19 119 81 125 87 3 4
19 15 35 25 31 18 106 103 142 160 64 101 70 241 13 292 -16 14 -44 55 -62 92
-18 36 -43 76 -55 87 -13 12 -23 25 -23 29 0 4 -19 24 -42 44 -23 20 -52 46
-64 59 -13 12 -26 22 -29 22 -7 0 -71 47 -93 68 -7 6 -20 12 -28 12 -8 0 -14
5 -14 10 0 6 -9 10 -19 10 -11 0 -23 5 -26 10 -3 6 -13 10 -21 10 -8 0 -25 11
-38 25 -14 16 -34 25 -52 25 -16 0 -60 11 -99 25 -38 13 -78 25 -87 25 -10 0
-18 3 -18 8 0 4 -37 16 -83 26 -45 11 -100 27 -122 37 -39 17 -177 33 -189 22z
m-1568 -930 c2 -8 -5 -13 -17 -13 -12 0 -21 6 -21 16 0 18 31 15 38 -3z m1002
-130 c27 -23 27 -73 1 -73 -40 0 -51 11 -51 51 0 44 16 51 50 22z m-609 -105
c10 -13 18 -31 19 -40 0 -25 -33 -40 -64 -28 -22 8 -26 15 -24 50 1 35 4 40
26 40 13 0 32 -10 43 -22z m773 16 c9 -3 16 -12 16 -20 0 -8 4 -14 9 -14 19 0
23 -41 6 -60 -31 -34 -85 5 -85 62 0 39 14 47 54 32z m-458 -52 c20 -26 17
-41 -12 -52 -53 -21 -64 -14 -64 36 l0 47 31 -7 c18 -3 38 -14 45 -24z m-195
-75 c26 -20 31 -72 10 -96 -23 -27 -29 -26 -56 5 -19 22 -21 30 -11 65 11 41
28 49 57 26z m430 -14 c25 -23 30 -33 27 -68 -3 -37 -5 -40 -35 -43 -27 -3
-34 2 -48 28 -12 22 -14 44 -10 71 8 47 23 49 66 12z"/>
<path d="M1157 3266 c-42 -38 -45 -46 -18 -46 11 0 23 9 26 20 3 11 10 20 14
20 4 0 18 9 31 20 22 19 22 20 3 20 -10 0 -36 -15 -56 -34z"/>
<path d="M4390 2360 c0 -9 -22 -36 -92 -110 -21 -22 -38 -44 -38 -50 0 -5 -4
-10 -10 -10 -5 0 -10 -9 -10 -19 0 -10 -7 -21 -15 -25 -8 -3 -15 -12 -15 -21
0 -37 -290 -315 -329 -315 -6 0 -11 -3 -11 -8 0 -4 -16 -16 -35 -26 -19 -11
-35 -23 -35 -28 0 -4 -9 -8 -20 -8 -11 0 -23 -7 -26 -15 -4 -8 -11 -15 -17
-15 -14 0 -116 -51 -123 -61 -3 -5 -16 -9 -30 -9 -13 0 -24 -4 -24 -9 0 -5
-13 -12 -30 -16 -16 -4 -32 -11 -35 -16 -4 -5 -17 -9 -30 -9 -13 0 -27 -4 -30
-10 -3 -5 -17 -10 -30 -10 -13 0 -26 -4 -29 -9 -3 -4 -24 -11 -46 -15 -22 -3
-40 -11 -40 -16 0 -6 -20 -10 -45 -10 -25 0 -45 -4 -45 -10 0 -5 -13 -10 -29
-10 -16 0 -48 -7 -71 -15 -23 -8 -67 -15 -96 -15 -30 0 -54 -4 -54 -10 0 -6
-28 -10 -63 -10 -35 0 -68 -5 -75 -12 -14 -14 -395 -18 -462 -5 -25 5 -70 11
-100 14 -30 2 -59 9 -64 14 -6 5 -34 9 -63 9 -30 0 -70 7 -90 15 -19 8 -51 15
-69 15 -19 0 -34 5 -34 10 0 6 -17 10 -37 10 -21 0 -47 7 -57 15 -11 8 -30 15
-42 15 -13 0 -26 5 -29 10 -3 6 -22 10 -41 10 -19 0 -34 5 -34 10 0 6 -10 10
-22 10 -13 0 -32 7 -42 15 -11 8 -28 15 -38 15 -10 0 -18 5 -18 10 0 6 -6 10
-12 10 -7 0 -44 16 -81 35 -38 19 -75 35 -83 35 -8 0 -14 7 -14 15 0 8 -7 15
-15 15 -16 0 -97 49 -103 63 -2 4 -8 7 -14 7 -5 0 -16 6 -23 13 -31 27 -44 37
-51 37 -10 0 -224 219 -224 230 0 6 -7 10 -15 10 -8 0 -15 9 -15 20 0 11 -7
23 -15 26 -8 4 -15 15 -15 25 0 10 -4 19 -10 19 -5 0 -10 5 -10 10 0 6 -17 27
-37 49 -59 60 -91 100 -85 106 3 3 -4 5 -16 5 -15 0 -22 -6 -22 -20 0 -11 -5
-20 -11 -20 -6 0 -8 -7 -5 -16 4 -10 2 -13 -6 -8 -8 5 -9 2 -5 -10 4 -11 -1
-29 -14 -47 -11 -16 -17 -29 -12 -28 22 4 25 -2 8 -15 -16 -12 -17 -16 -6 -30
9 -11 10 -16 2 -16 -15 0 -14 -37 2 -43 9 -4 9 -6 0 -6 -7 -1 -10 -8 -6 -18 5
-11 3 -14 -6 -8 -10 6 -11 3 -3 -11 5 -11 12 -30 13 -44 2 -14 9 -28 14 -32 6
-5 5 -8 -3 -8 -10 0 -9 -7 1 -32 8 -18 13 -43 12 -55 -1 -16 2 -20 10 -13 8 7
11 3 10 -13 -1 -12 5 -31 14 -41 9 -11 10 -16 4 -12 -9 5 -11 2 -7 -8 3 -9 11
-16 16 -16 6 0 8 -7 5 -15 -4 -8 -2 -17 4 -20 5 -4 7 -11 4 -16 -4 -5 -1 -9 5
-9 7 0 9 -7 6 -16 -3 -8 -2 -12 4 -9 6 3 10 -3 10 -13 0 -11 9 -22 20 -25 13
-3 18 -11 15 -26 -2 -11 1 -20 7 -18 6 1 12 -7 14 -17 1 -10 8 -22 15 -26 6
-4 8 -13 5 -19 -4 -6 -4 -10 1 -9 4 2 9 -1 10 -5 1 -5 13 -18 27 -31 14 -12
26 -25 26 -30 0 -12 27 -36 34 -29 3 4 6 -3 6 -15 0 -16 4 -20 16 -15 14 5 15
3 4 -17 -7 -12 -7 -20 -2 -16 6 3 13 2 17 -4 4 -6 11 -8 16 -5 5 4 6 -2 2 -12
-6 -16 -5 -16 10 -4 10 8 17 9 17 3 0 -6 -5 -14 -10 -17 -14 -8 -1 -28 14 -22
6 3 17 -2 24 -9 10 -11 10 -14 0 -14 -7 -1 -3 -9 10 -20 13 -10 29 -17 37 -14
10 4 12 0 8 -17 -6 -20 -4 -21 23 -15 23 6 27 5 17 -5 -15 -15 -17 -33 -3 -24
6 3 13 -1 16 -9 3 -9 10 -13 15 -10 5 3 9 -3 9 -12 0 -10 3 -14 7 -11 3 4 12
-1 20 -11 8 -9 11 -11 7 -3 -4 9 -2 12 7 9 8 -3 13 -10 12 -16 -2 -7 4 -9 14
-5 10 4 14 2 9 -5 -3 -6 -1 -14 5 -18 8 -4 9 -3 5 4 -14 24 8 11 35 -19 15
-17 32 -28 38 -24 6 3 11 -1 11 -9 0 -11 9 -16 26 -16 19 0 25 -4 21 -14 -4
-11 -1 -13 10 -9 10 4 21 -1 30 -13 8 -10 15 -18 16 -16 1 2 16 -2 32 -9 17
-7 34 -11 39 -10 5 1 6 -5 2 -14 -3 -9 -2 -14 3 -10 5 3 11 2 14 -2 2 -5 2 -2
0 6 -3 12 0 11 15 -2 10 -9 23 -17 29 -17 6 0 16 -6 22 -14 7 -8 25 -13 42
-12 21 2 28 -2 25 -11 -3 -7 1 -13 10 -13 8 0 13 4 10 9 -7 11 34 2 52 -12 6
-5 12 -6 12 -1 0 5 5 1 11 -9 9 -15 13 -16 27 -5 14 11 15 10 9 -5 -5 -14 -2
-18 11 -16 26 3 56 -12 42 -21 -7 -5 1 -7 18 -7 17 1 28 5 26 9 -3 5 2 8 10 8
10 0 13 -6 10 -15 -5 -13 -2 -14 19 -6 18 7 30 6 46 -5 28 -20 61 -26 61 -11
0 6 7 1 16 -11 16 -23 47 -31 38 -9 -3 8 4 13 18 14 13 0 17 -1 11 -4 -7 -3
-13 -11 -13 -19 0 -12 4 -12 19 -2 11 7 17 17 14 23 -3 5 7 -3 21 -20 19 -21
24 -24 19 -10 -6 17 -4 18 8 8 12 -10 20 -9 37 2 15 11 23 12 28 4 4 -7 3 -10
-2 -7 -5 3 -17 -2 -26 -12 -15 -14 -15 -17 -3 -17 8 0 15 4 15 8 0 12 40 18
47 7 4 -7 1 -8 -8 -3 -12 8 -12 6 0 -8 16 -20 22 -22 19 -6 -2 6 3 14 10 16 7
3 12 1 11 -4 -3 -20 2 -27 11 -13 7 11 13 12 32 2 33 -17 94 -20 90 -5 -3 16
10 17 25 2 13 -13 114 -19 107 -7 -3 5 -10 5 -16 2 -7 -4 -8 -2 -4 4 4 7 16
12 27 12 11 0 17 -4 14 -10 -3 -5 -1 -10 4 -10 6 0 11 4 11 9 0 4 10 7 23 6
12 -1 22 -4 22 -5 0 -1 10 -4 23 -5 12 -1 22 3 22 9 0 6 5 4 10 -4 5 -8 10
-10 10 -3 0 6 9 9 22 5 14 -3 19 -2 14 6 -9 15 9 15 33 0 15 -9 22 -8 34 4 9
9 15 17 14 19 -1 2 5 -4 14 -15 16 -19 40 -15 38 7 0 9 -2 8 -6 -1 -2 -6 -9
-9 -14 -6 -11 6 19 33 36 34 6 0 3 -5 -5 -11 -11 -8 -7 -9 18 -5 17 3 32 2 32
-3 0 -4 7 -8 15 -8 10 0 13 8 9 26 -5 23 -4 24 6 8 11 -18 13 -18 33 0 12 9
16 11 10 3 -21 -23 -15 -35 7 -15 16 14 25 16 43 8 17 -7 26 -5 40 9 9 10 17
20 17 23 0 18 1 19 8 8 11 -17 69 -24 69 -7 0 10 -4 11 -14 2 -11 -8 -12 -7
-7 6 3 9 10 16 14 16 5 0 17 3 27 6 15 5 15 4 3 -5 -13 -9 -13 -11 2 -11 9 0
22 8 27 18 10 16 10 15 11 -3 0 -15 3 -16 9 -7 4 7 14 14 22 15 8 2 20 6 27
10 6 5 12 5 12 1 0 -4 9 1 20 11 15 14 20 15 21 4 0 -8 4 -6 9 6 5 11 9 14 9
8 1 -7 6 -13 12 -13 5 0 7 5 4 10 -3 6 3 10 14 10 12 0 20 5 19 12 -2 6 6 13
17 15 16 3 17 2 5 -6 -11 -8 -11 -11 -2 -11 7 0 15 7 18 15 4 8 10 12 15 9 5
-3 9 -1 9 3 0 5 9 14 21 21 15 10 19 10 14 1 -5 -7 -3 -10 6 -7 8 3 13 11 11
17 -1 7 2 10 7 7 11 -7 61 13 61 24 0 4 12 6 26 4 19 -2 28 3 31 17 3 10 9 16
14 14 4 -3 13 4 19 15 6 11 14 19 18 18 15 -4 52 14 47 23 -4 5 3 9 14 9 11 0
24 6 28 13 4 6 15 12 23 12 8 0 14 5 13 11 -1 7 5 11 15 10 10 0 16 5 14 13
-2 8 3 11 12 8 9 -4 21 2 29 13 8 11 17 17 20 13 4 -3 7 2 7 12 0 10 3 15 6
12 7 -6 52 45 46 51 -6 6 51 62 62 62 5 0 -3 -14 -20 -31 -19 -19 -23 -28 -11
-23 17 6 41 40 42 59 0 6 7 10 15 10 9 0 14 9 13 22 -2 17 2 21 18 18 18 -4
19 -2 8 13 -7 9 -10 14 -5 10 12 -10 49 28 41 43 -5 7 -4 10 1 7 11 -7 29 12
29 32 0 8 8 14 18 14 14 -2 15 1 6 12 -9 11 -8 14 5 14 9 0 15 3 14 8 -2 4 9
23 25 43 15 20 27 43 27 52 0 10 6 17 14 17 16 0 29 27 20 41 -3 5 0 9 5 9 6
0 11 7 11 16 0 9 -5 12 -12 8 -7 -4 -8 -3 -4 5 5 8 12 9 19 2 9 -7 12 2 13 31
0 22 5 43 11 46 12 9 43 88 37 95 -3 3 1 16 9 29 19 30 29 155 13 162 -7 3 -7
5 2 5 6 1 12 6 12 12 0 5 -4 7 -10 4 -5 -3 -10 1 -10 10 0 9 5 13 11 9 8 -4 8
-1 1 12 -5 11 -7 24 -5 31 2 7 -1 22 -7 34 -10 17 -9 20 1 13 7 -4 4 6 -8 22
-11 16 -24 43 -27 61 -7 28 -36 56 -36 33z m-2750 -1420 c0 -5 -2 -10 -4 -10
-3 0 -8 5 -11 10 -3 6 -1 10 4 10 6 0 11 -4 11 -10z m784 -178 c3 -5 -1 -9 -9
-9 -8 0 -12 4 -9 9 3 4 7 8 9 8 2 0 6 -4 9 -8z m31 -12 c3 -5 1 -10 -4 -10 -6
0 -11 5 -11 10 0 6 2 10 4 10 3 0 8 -4 11 -10z"/>
<path d="M998 2133 c7 -3 16 -2 19 1 4 3 -2 6 -13 5 -11 0 -14 -3 -6 -6z"/>
<path d="M1020 2110 c0 -5 9 -10 20 -10 18 0 30 -20 13 -20 -5 0 -15 -5 -23
-10 -12 -8 5 -29 89 -110 58 -55 110 -100 118 -100 7 0 13 -4 13 -10 0 -5 6
-10 14 -10 8 0 16 -7 20 -15 3 -8 9 -15 14 -15 5 0 46 -22 92 -50 46 -27 89
-50 97 -50 7 0 13 -4 13 -10 0 -5 5 -10 10 -10 6 0 43 -15 83 -33 76 -36 111
-49 192 -74 28 -8 58 -19 67 -24 10 -5 31 -9 48 -9 18 0 33 -6 36 -15 5 -11
21 -15 59 -15 30 0 57 -4 60 -10 3 -5 27 -10 53 -10 26 -1 65 -7 87 -16 54
-19 680 -15 735 6 19 7 47 17 63 23 26 9 38 27 17 27 -5 0 -10 7 -10 15 0 10
-11 15 -35 15 -19 0 -35 5 -35 10 0 6 -16 10 -35 10 -19 0 -35 3 -35 8 0 10
58 42 76 42 8 0 14 5 14 10 0 6 9 10 21 10 11 0 29 5 40 11 19 10 65 20 169
38 25 4 55 13 67 19 12 7 31 12 42 12 12 0 29 4 39 9 9 5 33 14 52 20 32 9 31
10 -20 6 -30 -2 -89 -9 -130 -14 -188 -25 -480 -42 -605 -36 -162 8 -323 22
-395 34 -30 5 -91 14 -134 21 -44 6 -87 15 -97 20 -10 6 -35 10 -55 10 -21 0
-51 5 -68 10 -30 10 -177 47 -226 57 -14 3 -39 11 -57 19 -17 8 -40 14 -51 14
-12 0 -24 5 -27 10 -3 6 -15 10 -26 10 -10 0 -27 4 -37 9 -9 5 -57 24 -105 42
-48 18 -90 36 -93 41 -3 4 -14 8 -25 8 -10 0 -19 5 -19 10 0 6 -11 10 -25 10
-14 0 -25 5 -25 10 0 6 -8 10 -19 10 -10 0 -24 7 -31 15 -7 8 -21 15 -31 15
-11 0 -19 5 -19 10 0 6 -9 10 -20 10 -11 0 -20 -4 -20 -10z m67 -46 c-3 -3
-12 -4 -19 -1 -8 3 -5 6 6 6 11 1 17 -2 13 -5z"/>
<path d="M1745 870 c-3 -5 -1 -10 4 -10 6 0 11 5 11 10 0 6 -2 10 -4 10 -3 0
-8 -4 -11 -10z"/>
<path d="M1973 816 c0 -8 9 -17 20 -20 18 -4 18 -4 1 15 -21 23 -21 23 -21 5z"/>
</g>
</svg>
