<?xml version="1.0" encoding="UTF-8"?>
<!-- Generated by Pixelmator Pro 3.4.1 -->
<svg width="800" height="800" viewBox="0 0 800 800" xmlns="http://www.w3.org/2000/svg">
    <path id="Ellipse" fill="#ffffff" stroke="none" d="M 400 767 C 197.311691 767 33 602.688293 33 400 C 33 197.311707 197.311691 33 400 33 C 602.688293 33 767 197.311707 767 400 C 767 602.688293 602.688293 767 400 767 Z M 262.078125 580.291016 C 272.816498 580.291016 283.55307 576.194519 291.746094 568.001953 L 400.201172 459.544922 L 508.621094 567.964844 C 525.010498 584.354248 551.575378 584.354248 567.964844 567.964844 C 584.349915 551.579651 584.349915 525.014343 567.964844 508.625 L 459.541016 400.205078 L 568.005859 291.740234 C 584.395264 275.35376 584.395264 248.786804 568.005859 232.400391 C 551.620605 216.014343 525.05542 216.014343 508.666016 232.400391 L 400.201172 340.867188 L 291.625 232.289063 C 275.238983 215.902588 248.671143 215.902588 232.285156 232.289063 C 215.899094 248.67511 215.898682 275.242432 232.285156 291.628906 L 340.861328 400.205078 L 232.408203 508.658203 C 216.022171 525.047546 216.022171 551.612549 232.408203 568.001953 C 240.601212 576.194519 251.339737 580.291016 262.078125 580.291016 Z"/>
</svg>
