<?xml version="1.0" encoding="UTF-8"?>
<!-- Generated by Pixelmator Pro 3.4.1 -->
<svg width="512" height="512" viewBox="0 0 512 512" xmlns="http://www.w3.org/2000/svg">
    <path id="Path" fill="#ffffff" stroke="none" d="M 424.5 216.5 L 409.299988 216.5 C 396.899994 216.5 386.5 205.799988 386.5 193.100006 C 386.5 186.700012 389.200012 180.899994 394 176.600006 L 403.799988 167 C 413.5 157.399994 413.5 141.700012 403.799988 132.100006 L 381.5 110 C 377.100006 105.600006 370.600006 103 364 103 C 357.399994 103 351 105.600006 346.5 110 L 337.100006 119.399994 C 332.600006 124.399994 326.600006 127.100006 320.100006 127.100006 C 307.299988 127.100006 296.600006 116.700012 296.600006 104.399994 L 296.600006 89.100006 C 296.600006 75.600006 285.700012 64 272.100006 64 L 241.699997 64 C 228.100006 64 217.300003 75.5 217.300003 89.100006 L 217.300003 104.299988 C 217.300003 116.600006 206.600006 127 193.800003 127 C 187.399994 127 181.5 124.299988 177.199997 119.600006 L 167.5 110 C 163.100006 105.5 156.600006 103 150 103 C 143.399994 103 137 105.600006 132.5 110 L 110 132 C 100.400002 141.600006 100.400002 157.299988 110 166.799988 L 119.400002 176.200012 C 124.400002 180.700012 127.199997 186.700012 127.199997 193.100006 C 127.199997 205.899994 116.800003 216.5 104.400002 216.5 L 89.199997 216.5 C 75.5 216.5 64 227.200012 64 240.799988 L 64 256 L 64 271.200012 C 64 284.700012 75.5 295.5 89.199997 295.5 L 104.400002 295.5 C 116.800003 295.5 127.199997 306.200012 127.199997 318.899994 C 127.199997 325.299988 124.400002 331.299988 119.400002 335.799988 L 110 345.100006 C 100.400002 354.700012 100.400002 370.399994 110 379.899994 L 132.300003 402.100006 C 136.699997 406.600006 143.199997 409.100006 149.800003 409.100006 C 156.399994 409.100006 162.800003 406.5 167.300003 402.100006 L 177 392.5 C 181.199997 387.799988 187.199997 385.100006 193.600006 385.100006 C 206.399994 385.100006 217.100006 395.5 217.100006 407.799988 L 217.100006 423 C 217.100006 436.5 227.899994 448.100006 241.600006 448.100006 L 272 448.100006 C 285.600006 448.100006 296.399994 436.600006 296.399994 423 L 296.399994 407.799988 C 296.399994 395.5 307.100006 385.100006 319.899994 385.100006 C 326.299988 385.100006 332.299988 387.899994 336.899994 392.799988 L 346.299988 402.200012 C 350.799988 406.600006 357.200012 409.200012 363.799988 409.200012 C 370.399994 409.200012 376.799988 406.600006 381.299988 402.200012 L 403.600006 380 C 413.200012 370.399994 413.200012 354.700012 403.600006 345.100006 L 393.799988 335.5 C 389 331.200012 386.299988 325.299988 386.299988 319 C 386.299988 306.200012 396.700012 295.600006 409.100006 295.600006 L 424.299988 295.600006 C 437.899994 295.600006 447.600006 284.899994 447.600006 271.299988 L 447.600006 256 L 447.600006 240.799988 C 447.799988 227.200012 438.100006 216.5 424.5 216.5 Z M 336.799988 256 L 336.799988 256 C 336.799988 300.100006 301.100006 336 256.799988 336 C 212.5 336 176.800003 300.100006 176.800003 256 L 176.800003 256 L 176.800003 256 C 176.800003 211.899994 212.5 176 256.799988 176 C 301.100006 176 336.799988 211.899994 336.799988 256 L 336.799988 256 Z"/>
</svg>
